<svg width="512" height="512" viewBox="0 0 512 512" fill="none" xmlns="http://www.w3.org/2000/svg">
  <rect width="512" height="512" rx="112" fill="#0B1020"/>
  <path d="M99 340C129 251 199 156 329 121C304 153 292 190 292 230C292 283 318 326 361 354C270 385 181 384 99 340Z" fill="#D8F3FF"/>
  <path d="M154 325C184 256 239 196 321 164C310 186 304 209 304 234C304 275 323 310 354 335C283 354 216 350 154 325Z" fill="#5CC8FF"/>
  <path d="M94 341C181 375 271 375 370 342C387 356 402 371 417 389C289 441 181 422 94 341Z" fill="#1E88E5"/>
  <circle cx="333" cy="178" r="14" fill="#0B1020"/>
  <path d="M376 199L428 181L394 226L376 199Z" fill="#D8F3FF"/>
  <path d="M126 352C175 370 228 377 285 371" stroke="#FFFFFF" stroke-width="18" stroke-linecap="round" opacity="0.7"/>
</svg>
